<svg width="1600" height="1200" viewBox="0 0 1600 1200" fill="none" xmlns="http://www.w3.org/2000/svg">
<rect width="1600" height="1200" fill="#F5F5F5"/>
<g clip-path="url(#clip0_0_1)">
<rect width="1600" height="1200" fill="#F6E2E6"/>
<path d="M1106.13 -55.0902C1204.13 21.4597 1238.19 179.881 1206.23 300.053C1172.1 428.328 1002.96 471.813 935.548 586.159C883.668 674.164 923.072 797.411 863.921 880.705C804.052 965.011 708.272 1027.11 607.133 1048.62C507.755 1069.76 411.417 996.204 309.843 998.569C202.243 1001.07 103.602 1077.77 -2.98578 1062.83C-115.749 1047.02 -220.512 988.126 -305.473 912.316C-394.308 833.049 -488.869 736.657 -501.236 618.242C-513.872 497.252 -403.412 398.81 -371.356 281.461C-343.839 180.726 -395.302 52.7069 -325.527 -24.9861C-252.121 -106.722 -111.471 -68.9201 -12.9783 -117.585C69.3014 -158.238 116.513 -250.739 201.497 -285.385C292.192 -322.358 397.919 -356.635 489.729 -322.524C582.889 -287.911 597.134 -144.071 688.305 -104.515C818.385 -48.0784 994.386 -142.378 1106.13 -55.0902Z" fill="#DD2D50"/>
<g filter="url(#filter0_f_0_1)">
<circle cx="301" cy="240" r="152" fill="#DD2D50" fill-opacity="0.24"/>
</g>
</g>
<defs>
<filter id="filter0_f_0_1" x="-51" y="-112" width="704" height="704" filterUnits="userSpaceOnUse" color-interpolation-filters="sRGB">
<feFlood flood-opacity="0" result="BackgroundImageFix"/>
<feBlend mode="normal" in="SourceGraphic" in2="BackgroundImageFix" result="shape"/>
<feGaussianBlur stdDeviation="100" result="effect1_foregroundBlur_0_1"/>
</filter>
<clipPath id="clip0_0_1">
<rect width="1600" height="1200" fill="white"/>
</clipPath>
</defs>
</svg>
